<svg width="139" height="37" viewBox="0 0 139 37" fill="none" xmlns="http://www.w3.org/2000/svg">
<path d="M13.892 12.204C13.892 13.3387 13.6697 14.366 13.225 15.286C12.7957 16.1907 12.1287 16.9113 11.224 17.448C10.3347 17.9693 9.20767 18.23 7.843 18.23C5.911 18.23 4.439 17.678 3.427 16.574C2.43033 15.4547 1.932 13.9827 1.932 12.158V1.578H3.979V12.227C3.979 13.561 4.30867 14.596 4.968 15.332C5.62733 16.068 6.624 16.436 7.958 16.436C8.878 16.436 9.62167 16.2597 10.189 15.907C10.7563 15.539 11.1703 15.0407 11.431 14.412C11.707 13.768 11.845 13.032 11.845 12.204V1.578H13.892V12.204ZM21.0324 5.442C22.4124 5.442 23.4551 5.80233 24.1604 6.523C24.8811 7.22833 25.2414 8.37833 25.2414 9.973V18H23.2404V10.111C23.2404 9.11433 23.0334 8.37067 22.6194 7.88C22.2054 7.38933 21.5691 7.144 20.7104 7.144C19.4531 7.144 18.5791 7.52733 18.0884 8.294C17.6131 9.06067 17.3754 10.1647 17.3754 11.606V18H15.3744V5.672H16.9844L17.2834 7.351H17.3984C17.6438 6.92167 17.9581 6.569 18.3414 6.293C18.7248 6.00167 19.1464 5.787 19.6064 5.649C20.0664 5.511 20.5418 5.442 21.0324 5.442ZM34.3031 1.578C35.8211 1.578 37.0707 1.72367 38.0521 2.015C39.0334 2.30633 39.7617 2.75867 40.2371 3.372C40.7124 3.97 40.9501 4.752 40.9501 5.718C40.9501 6.37733 40.8351 6.96 40.6051 7.466C40.3751 7.95667 40.0684 8.363 39.6851 8.685C39.3017 8.99167 38.8724 9.191 38.3971 9.283V9.398C38.8877 9.50533 39.3554 9.697 39.8001 9.973C40.2447 10.2337 40.6051 10.6247 40.8811 11.146C41.1724 11.6673 41.3181 12.3573 41.3181 13.216C41.3181 14.2127 41.0651 15.0713 40.5591 15.792C40.0684 16.5127 39.3631 17.0647 38.4431 17.448C37.5231 17.816 36.4344 18 35.1771 18H28.9211V1.578H34.3031ZM34.5561 7.995C35.4301 7.995 36.0434 7.84167 36.3961 7.535C36.7487 7.213 36.9251 6.78367 36.9251 6.247C36.9251 5.71033 36.7181 5.31167 36.3041 5.051C35.9054 4.79033 35.2691 4.66 34.3951 4.66H32.8311V7.995H34.5561ZM32.8311 10.985V14.872H34.7861C35.7061 14.872 36.3424 14.688 36.6951 14.32C37.0631 13.952 37.2471 13.469 37.2471 12.871C37.2471 12.503 37.1704 12.181 37.0171 11.905C36.8637 11.6137 36.5954 11.3913 36.2121 11.238C35.8441 11.0693 35.3381 10.985 34.6941 10.985H32.8311ZM46.3976 18H42.5106V0.519999H46.3976V18ZM59.8636 11.652C59.8636 12.71 59.7179 13.6453 59.4266 14.458C59.1506 15.2707 58.7366 15.9607 58.1846 16.528C57.6479 17.0953 56.9963 17.5247 56.2296 17.816C55.4783 18.092 54.6119 18.23 53.6306 18.23C52.7413 18.23 51.9133 18.092 51.1466 17.816C50.3953 17.5247 49.7436 17.103 49.1916 16.551C48.6549 15.9837 48.2333 15.2937 47.9266 14.481C47.6199 13.653 47.4666 12.71 47.4666 11.652C47.4666 10.2567 47.7119 9.076 48.2026 8.11C48.7086 7.144 49.4293 6.408 50.3646 5.902C51.2999 5.396 52.4116 5.143 53.6996 5.143C54.9109 5.143 55.9766 5.396 56.8966 5.902C57.8166 6.408 58.5373 7.144 59.0586 8.11C59.5953 9.076 59.8636 10.2567 59.8636 11.652ZM51.3996 11.652C51.3996 12.434 51.4763 13.0933 51.6296 13.63C51.7829 14.1667 52.0283 14.573 52.3656 14.849C52.7029 15.1097 53.1399 15.24 53.6766 15.24C54.2286 15.24 54.6656 15.1097 54.9876 14.849C55.3096 14.573 55.5473 14.1667 55.7006 13.63C55.8539 13.0933 55.9306 12.434 55.9306 11.652C55.9306 10.87 55.8539 10.2183 55.7006 9.697C55.5473 9.17567 55.3019 8.78467 54.9646 8.524C54.6426 8.26333 54.2056 8.133 53.6536 8.133C52.8716 8.133 52.2966 8.432 51.9286 9.03C51.5759 9.61267 51.3996 10.4867 51.3996 11.652ZM64.9915 5.143C65.8195 5.143 66.5249 5.304 67.1075 5.626C67.6902 5.948 68.1732 6.39267 68.5565 6.96H68.6485L68.9475 5.373H72.2595V18.023C72.2595 19.219 72.0219 20.2233 71.5465 21.036C71.0712 21.8487 70.3505 22.462 69.3845 22.876C68.4185 23.3053 67.2072 23.52 65.7505 23.52C64.7999 23.52 63.9335 23.4663 63.1515 23.359C62.3849 23.2517 61.6412 23.06 60.9205 22.784V19.633C61.4419 19.8477 61.9479 20.024 62.4385 20.162C62.9445 20.3153 63.4659 20.4227 64.0025 20.484C64.5545 20.5607 65.1372 20.599 65.7505 20.599C66.6399 20.599 67.2992 20.392 67.7285 19.978C68.1732 19.5793 68.3955 18.9813 68.3955 18.184V17.931C68.3955 17.701 68.4032 17.448 68.4185 17.172C68.4492 16.896 68.4799 16.6277 68.5105 16.367H68.3955C68.0275 16.965 67.5599 17.425 66.9925 17.747C66.4252 18.069 65.7352 18.23 64.9225 18.23C63.4965 18.23 62.3619 17.6627 61.5185 16.528C60.6905 15.3933 60.2765 13.7833 60.2765 11.698C60.2765 10.2873 60.4682 9.099 60.8515 8.133C61.2349 7.15167 61.7792 6.408 62.4845 5.902C63.2052 5.396 64.0409 5.143 64.9915 5.143ZM66.3485 8.202C65.8732 8.202 65.4745 8.34 65.1525 8.616C64.8305 8.87667 64.5929 9.26767 64.4395 9.789C64.2862 10.3103 64.2095 10.9697 64.2095 11.767C64.2095 12.9477 64.3859 13.8217 64.7385 14.389C65.0912 14.941 65.6432 15.217 66.3945 15.217C66.8085 15.217 67.1535 15.1633 67.4295 15.056C67.7209 14.9333 67.9509 14.7493 68.1195 14.504C68.3035 14.2433 68.4415 13.9213 68.5335 13.538C68.6255 13.1547 68.6715 12.6947 68.6715 12.158V11.675C68.6715 10.893 68.5949 10.249 68.4415 9.743C68.2882 9.22167 68.0429 8.83833 67.7055 8.593C67.3682 8.33233 66.9159 8.202 66.3485 8.202Z" fill="#1F2129"/>
<path d="M22.49 27.628C22.49 29.468 22.168 31.009 21.524 32.251C20.88 33.493 19.9523 34.4283 18.741 35.057C17.545 35.6857 16.096 36 14.394 36H10.093V19.578H14.854C16.418 19.578 17.7673 19.8847 18.902 20.498C20.052 21.1113 20.9337 22.016 21.547 23.212C22.1757 24.3927 22.49 25.8647 22.49 27.628ZM20.328 27.697C20.328 26.2403 20.1057 25.0443 19.661 24.109C19.2163 23.1737 18.5647 22.4837 17.706 22.039C16.8627 21.579 15.8277 21.349 14.601 21.349H12.14V34.229H14.187C16.2417 34.229 17.775 33.6847 18.787 32.596C19.8143 31.492 20.328 29.859 20.328 27.697ZM28.505 23.442C29.5017 23.442 30.3604 23.672 31.081 24.132C31.8017 24.592 32.3537 25.2437 32.737 26.087C33.1357 26.915 33.335 27.8887 33.335 29.008V30.227H25.423C25.4537 31.6223 25.7834 32.688 26.412 33.424C27.0407 34.1447 27.9224 34.505 29.057 34.505C29.793 34.505 30.4447 34.436 31.012 34.298C31.5947 34.1447 32.1927 33.93 32.806 33.654V35.425C32.208 35.701 31.6177 35.9003 31.035 36.023C30.4677 36.161 29.7777 36.23 28.965 36.23C27.861 36.23 26.8874 35.9923 26.044 35.517C25.2007 35.0417 24.5414 34.3363 24.066 33.401C23.5907 32.4503 23.353 31.2927 23.353 29.928C23.353 28.5787 23.5677 27.421 23.997 26.455C24.4264 25.489 25.0244 24.7453 25.791 24.224C26.573 23.7027 27.4777 23.442 28.505 23.442ZM28.505 25.098C27.6157 25.098 26.9104 25.4123 26.389 26.041C25.8677 26.6543 25.561 27.513 25.469 28.617H31.265C31.265 27.9117 31.1654 27.2983 30.966 26.777C30.7667 26.2557 30.46 25.8493 30.046 25.558C29.6474 25.2513 29.1337 25.098 28.505 25.098ZM50.0843 36H46.1743V29.1H40.2862V36H36.3532V19.578H40.2862V25.857H46.1743V19.578H50.0843V36ZM56.1712 23.373V36H52.3072V23.373H56.1712ZM54.2622 18.359C54.8142 18.359 55.2972 18.4817 55.7112 18.727C56.1252 18.9723 56.3322 19.4477 56.3322 20.153C56.3322 20.843 56.1252 21.3183 55.7112 21.579C55.2972 21.8243 54.8142 21.947 54.2622 21.947C53.6795 21.947 53.1812 21.8243 52.7672 21.579C52.3685 21.3183 52.1692 20.843 52.1692 20.153C52.1692 19.4477 52.3685 18.9723 52.7672 18.727C53.1812 18.4817 53.6795 18.359 54.2622 18.359ZM67.2216 32.182C67.2216 33.01 67.0299 33.7307 66.6466 34.344C66.2786 34.942 65.6959 35.4097 64.8986 35.747C64.1013 36.069 63.0893 36.23 61.8626 36.23C60.9733 36.23 60.1913 36.1763 59.5166 36.069C58.8573 35.9617 58.1903 35.77 57.5156 35.494V32.366C58.2516 32.688 59.0183 32.941 59.8156 33.125C60.6283 33.309 61.3029 33.401 61.8396 33.401C62.4223 33.401 62.8439 33.3243 63.1046 33.171C63.3653 33.0177 63.4956 32.803 63.4956 32.527C63.4956 32.3277 63.4266 32.1513 63.2886 31.998C63.1659 31.8447 62.9053 31.6683 62.5066 31.469C62.1233 31.2697 61.5483 31.0167 60.7816 30.71C60.0303 30.388 59.4093 30.0583 58.9186 29.721C58.4433 29.3837 58.0829 28.9773 57.8376 28.502C57.6076 28.0267 57.4926 27.444 57.4926 26.754C57.4926 25.558 57.9526 24.661 58.8726 24.063C59.8079 23.4497 61.0423 23.143 62.5756 23.143C63.3883 23.143 64.1549 23.2273 64.8756 23.396C65.5963 23.5647 66.3399 23.8253 67.1066 24.178L66.0026 26.8C65.5886 26.616 65.1746 26.455 64.7606 26.317C64.3619 26.179 63.9786 26.0717 63.6106 25.995C63.2426 25.9183 62.8976 25.88 62.5756 25.88C62.1463 25.88 61.8166 25.9413 61.5866 26.064C61.3566 26.1713 61.2416 26.34 61.2416 26.57C61.2416 26.7387 61.3029 26.8997 61.4256 27.053C61.5636 27.191 61.8166 27.3443 62.1846 27.513C62.5679 27.6817 63.1199 27.9193 63.8406 28.226C64.5613 28.5173 65.1746 28.824 65.6806 29.146C66.1866 29.468 66.5699 29.8667 66.8306 30.342C67.0913 30.8173 67.2216 31.4307 67.2216 32.182ZM74.1184 33.148C74.517 33.148 74.885 33.1097 75.2224 33.033C75.5597 32.9563 75.9047 32.8567 76.2574 32.734V35.586C75.8434 35.77 75.368 35.9233 74.8314 36.046C74.2947 36.1687 73.6584 36.23 72.9224 36.23C72.1404 36.23 71.4427 36.1073 70.8294 35.862C70.2314 35.6013 69.756 35.1643 69.4034 34.551C69.066 33.9223 68.8974 33.056 68.8974 31.952V26.271H67.2874V24.661L69.2194 23.419L70.2774 20.751H72.7614V23.373H76.1194V26.271H72.7614V31.814C72.7614 32.2587 72.884 32.596 73.1294 32.826C73.3747 33.0407 73.7044 33.148 74.1184 33.148ZM89.029 29.652C89.029 30.71 88.8833 31.6453 88.592 32.458C88.316 33.2707 87.902 33.9607 87.35 34.528C86.8133 35.0953 86.1617 35.5247 85.395 35.816C84.6437 36.092 83.7773 36.23 82.796 36.23C81.9067 36.23 81.0787 36.092 80.312 35.816C79.5607 35.5247 78.909 35.103 78.357 34.551C77.8203 33.9837 77.3987 33.2937 77.092 32.481C76.7853 31.653 76.632 30.71 76.632 29.652C76.632 28.2567 76.8773 27.076 77.368 26.11C77.874 25.144 78.5947 24.408 79.53 23.902C80.4653 23.396 81.577 23.143 82.865 23.143C84.0763 23.143 85.142 23.396 86.062 23.902C86.982 24.408 87.7027 25.144 88.224 26.11C88.7607 27.076 89.029 28.2567 89.029 29.652ZM80.565 29.652C80.565 30.434 80.6417 31.0933 80.795 31.63C80.9483 32.1667 81.1937 32.573 81.531 32.849C81.8683 33.1097 82.3053 33.24 82.842 33.24C83.394 33.24 83.831 33.1097 84.153 32.849C84.475 32.573 84.7127 32.1667 84.866 31.63C85.0193 31.0933 85.096 30.434 85.096 29.652C85.096 28.87 85.0193 28.2183 84.866 27.697C84.7127 27.1757 84.4673 26.7847 84.13 26.524C83.808 26.2633 83.371 26.133 82.819 26.133C82.037 26.133 81.462 26.432 81.094 27.03C80.7413 27.6127 80.565 28.4867 80.565 29.652ZM97.6529 23.143C97.8523 23.143 98.0746 23.1583 98.3199 23.189C98.5653 23.2043 98.7569 23.2273 98.8949 23.258L98.5729 26.892C98.4349 26.8613 98.2586 26.8383 98.0439 26.823C97.8293 26.7923 97.5916 26.777 97.3309 26.777C96.9629 26.777 96.5949 26.823 96.2269 26.915C95.8589 26.9917 95.5216 27.1373 95.2149 27.352C94.9083 27.5513 94.6629 27.8427 94.4789 28.226C94.2949 28.594 94.2029 29.077 94.2029 29.675V36H90.3159V23.373H93.2369L93.8349 25.443H93.9959C94.2413 25.0137 94.5479 24.6303 94.9159 24.293C95.2839 23.9403 95.6979 23.6643 96.1579 23.465C96.6333 23.2503 97.1316 23.143 97.6529 23.143ZM103.424 23.373V36H99.5605V23.373H103.424ZM101.515 18.359C102.067 18.359 102.55 18.4817 102.964 18.727C103.378 18.9723 103.585 19.4477 103.585 20.153C103.585 20.843 103.378 21.3183 102.964 21.579C102.55 21.8243 102.067 21.947 101.515 21.947C100.933 21.947 100.434 21.8243 100.02 21.579C99.6218 21.3183 99.4225 20.843 99.4225 20.153C99.4225 19.4477 99.6218 18.9723 100.02 18.727C100.434 18.4817 100.933 18.359 101.515 18.359ZM111.048 23.12C112.689 23.12 113.961 23.5033 114.866 24.27C115.771 25.0213 116.223 26.1407 116.223 27.628V36H113.532L112.773 34.298H112.681C112.328 34.7427 111.96 35.1107 111.577 35.402C111.209 35.6933 110.78 35.9003 110.289 36.023C109.814 36.161 109.223 36.23 108.518 36.23C107.782 36.23 107.115 36.0843 106.517 35.793C105.934 35.5017 105.474 35.057 105.137 34.459C104.8 33.861 104.631 33.102 104.631 32.182C104.631 30.8327 105.099 29.836 106.034 29.192C106.985 28.548 108.372 28.1877 110.197 28.111L112.359 28.042V27.674C112.359 27.0607 112.198 26.616 111.876 26.34C111.569 26.064 111.14 25.926 110.588 25.926C110.036 25.926 109.461 26.018 108.863 26.202C108.265 26.3707 107.659 26.5853 107.046 26.846L105.873 24.27C106.563 23.902 107.345 23.6183 108.219 23.419C109.093 23.2197 110.036 23.12 111.048 23.12ZM111.186 30.296C110.22 30.3267 109.545 30.503 109.162 30.825C108.779 31.1317 108.587 31.5533 108.587 32.09C108.587 32.5653 108.725 32.9103 109.001 33.125C109.277 33.3397 109.63 33.447 110.059 33.447C110.703 33.447 111.247 33.2553 111.692 32.872C112.137 32.4733 112.359 31.9367 112.359 31.262V30.25L111.186 30.296Z" fill="#1F2129"/>
</svg>
